<?xml version="1.0" standalone="no"?>
<!DOCTYPE svg PUBLIC "-//W3C//DTD SVG 20010904//EN"
 "http://www.w3.org/TR/2001/REC-SVG-20010904/DTD/svg10.dtd">
<svg version="1.0" xmlns="http://www.w3.org/2000/svg"
 width="479.000000pt" height="479.000000pt" viewBox="0 0 479.000000 479.000000"
 preserveAspectRatio="xMidYMid meet">
<metadata>
Created by potrace 1.11, written by Peter Selinger 2001-2013
</metadata>
<g transform="translate(0.000000,479.000000) scale(0.100000,-0.100000)"
fill="#000000" stroke="none">
<path d="M1515 4744 c-90 -28 -125 -45 -243 -121 l-137 -90 -98 -160 -98 -159
-3 -205 c-2 -112 -5 -215 -7 -229 -3 -19 2 -26 24 -34 24 -9 31 -7 42 7 22 30
27 19 24 -55 -2 -40 0 -79 5 -86 4 -7 6 -45 5 -86 -1 -40 1 -78 5 -85 4 -6 6
-49 5 -94 -3 -76 -1 -86 26 -132 16 -27 29 -51 28 -52 -1 -2 4 -18 12 -37 13
-30 13 -41 -1 -88 -9 -29 -28 -73 -42 -98 -77 -137 -112 -213 -112 -244 0 -18
-3 -35 -6 -38 -3 -4 -7 -36 -10 -73 -2 -37 -7 -71 -10 -76 -3 -5 -7 -39 -10
-75 -2 -36 -6 -70 -9 -74 -9 -14 -11 -251 -3 -256 4 -3 8 -124 8 -269 l0 -263
25 -30 c14 -17 25 -33 25 -36 0 -4 29 -46 64 -94 92 -123 97 -131 96 -138 -1
-3 6 -11 15 -18 15 -11 15 -30 6 -200 l-11 -189 78 -85 c110 -122 463 -476
624 -626 l136 -127 236 -5 c130 -2 236 -3 236 -1 0 2 -18 80 -39 173 -22 93
-37 171 -35 173 3 4 92 -28 393 -140 101 -38 191 -69 199 -69 9 0 81 65 161
145 l146 144 100 237 100 236 110 92 c61 51 137 113 170 139 119 91 114 85
121 162 3 39 8 76 10 84 3 8 7 84 10 170 5 139 2 189 -31 456 -33 273 -38 302
-58 317 -23 19 -197 131 -250 162 -28 16 -37 17 -77 6 l-44 -12 34 -28 35 -28
-40 -18 c-22 -10 -41 -19 -42 -19 -1 0 7 -54 18 -119 11 -65 18 -121 16 -122
-2 -2 -60 36 -129 86 l-125 90 -179 -18 -179 -19 -263 26 -263 25 -204 -29
-204 -29 -138 65 -138 65 4 145 c3 140 3 144 -15 128 -114 -95 -201 -167 -210
-172 -8 -4 -15 60 -23 214 -7 121 -11 223 -8 225 3 3 47 7 99 10 51 2 125 6
165 8 l72 4 3 -41 c3 -48 -21 -43 187 -39 l110 2 3 53 3 52 145 14 c141 14
270 9 473 -16 l47 -6 0 -48 0 -49 88 -1 c48 -1 114 -2 147 -2 l60 -2 3 38 3
37 88 0 c48 0 116 -3 151 -7 l63 -6 -7 -121 c-4 -67 -9 -157 -12 -201 -6 -76
-5 -81 19 -103 l24 -23 65 17 65 17 7 105 c3 58 6 140 6 184 0 75 1 78 24 78
21 0 24 6 36 75 7 42 16 78 20 80 3 2 14 -27 24 -64 17 -64 23 -73 103 -152
l86 -84 -48 90 c-27 50 -62 131 -80 182 l-31 91 23 52 c13 29 23 60 23 70 0 9
3 20 7 23 4 4 6 31 4 61 -1 30 3 136 9 237 l12 182 -23 18 -23 17 17 61 c9 33
17 63 17 65 0 7 -223 191 -270 223 -25 17 -113 96 -195 176 l-151 145 -270
135 -271 136 -149 16 c-82 9 -225 16 -319 17 -93 0 -223 0 -287 1 -105 2 -128
-1 -223 -29z m1020 -854 c257 -14 275 -17 275 -40 0 -19 10 -24 508 -267 l172
-84 0 -72 -1 -72 -29 35 c-30 34 -30 35 -46 15 -13 -17 -15 -42 -9 -175 l7
-155 -458 7 c-253 3 -735 4 -1072 1 l-613 -6 5 24 c12 57 17 297 7 304 -21 12
-11 25 21 25 17 0 93 7 169 16 l138 16 148 -41 c140 -38 159 -40 358 -50 116
-5 212 -8 216 -6 3 2 104 5 225 6 178 1 228 5 262 18 24 9 40 20 36 23 -3 4 2
4 13 2 10 -3 32 0 48 7 17 7 34 11 39 10 13 -3 36 20 36 36 0 8 -5 11 -10 8
-6 -4 -8 -10 -6 -14 3 -4 -1 -8 -9 -8 -8 0 -12 4 -9 9 3 4 0 8 -5 8 -6 0 -27
16 -47 35 -38 38 -54 44 -54 21 0 -8 -5 -18 -10 -21 -7 -4 -9 7 -6 29 4 30 1
36 -15 36 -10 0 -19 5 -19 11 0 5 -5 7 -11 3 -8 -5 -5 -11 7 -18 11 -6 20 -23
20 -38 1 -15 -3 -25 -8 -22 -5 3 -7 12 -4 20 6 16 -21 47 -35 39 -5 -4 -6 1
-3 10 5 11 2 14 -10 9 -9 -3 -16 -1 -16 5 0 7 -10 9 -27 5 l-28 -7 25 24 c14
13 26 31 28 39 2 9 -8 4 -25 -12 -39 -37 -60 -25 -37 22 16 31 18 32 31 15 7
-11 13 -14 13 -8 0 5 -10 18 -22 29 -12 10 -19 14 -15 8 3 -6 -4 -22 -16 -35
-12 -13 -21 -25 -19 -27 2 -1 1 -8 -1 -15 -3 -7 -6 -5 -6 5 -1 9 -8 18 -17 20
-13 2 -12 7 6 26 12 12 25 20 31 17 5 -4 9 0 9 8 0 7 -7 14 -15 14 -8 0 -12
-4 -9 -9 3 -4 1 -8 -3 -8 -14 0 -34 38 -22 42 7 2 6 8 -3 16 -12 9 -14 8 -13
-6 0 -9 4 -23 9 -30 4 -7 2 -12 -5 -12 -8 0 -8 -5 2 -17 7 -10 9 -15 4 -10
-11 9 -46 -23 -38 -36 4 -6 1 -7 -6 -2 -9 5 -8 12 6 29 11 11 18 27 17 34 -1
6 -2 18 -3 25 -1 8 -4 7 -11 -3 -5 -8 -10 -10 -10 -4 0 6 3 14 7 18 14 14 10
32 -8 33 -23 2 -34 -13 -18 -23 8 -5 9 -3 4 6 -5 9 -4 11 4 6 9 -6 9 -11 0
-22 -8 -10 -15 -11 -24 -4 -6 5 -14 9 -16 7 -2 -1 -1 2 3 7 24 30 -11 65 -72
74 -14 2 -261 7 -550 11 -289 4 -511 8 -495 9 206 14 533 33 660 38 88 4 162
8 164 10 7 7 109 4 306 -6z m-41 -101 c-5 -9 -34 -13 -34 -5 0 2 3 12 6 20 5
13 9 14 20 5 8 -6 11 -15 8 -20z m3 -84 c0 -8 -4 -12 -9 -9 -5 3 -6 10 -3 15
9 13 12 11 12 -6z m160 -137 c-3 -8 -6 -5 -6 6 -1 11 2 17 5 13 3 -3 4 -12 1
-19z m76 -8 c4 -17 2 -18 -14 -9 -11 5 -17 14 -14 20 10 15 22 10 28 -11z
m153 -65 c-3 -9 0 -15 10 -15 8 0 13 -4 9 -10 -9 -15 -34 0 -32 21 1 10 5 19
10 19 5 0 7 -7 3 -15z m-1701 -510 c4 -30 13 -59 20 -63 8 -5 14 -57 17 -172
6 -166 4 -195 -13 -184 -5 3 -9 0 -9 -6 0 -6 -5 -8 -11 -4 -8 4 -9 -1 -4 -17
7 -22 6 -23 -7 -5 -13 17 -15 17 -31 1 -9 -9 -17 -21 -17 -27 0 -6 -2 -9 -5
-7 -2 3 0 104 5 225 10 211 23 314 40 314 5 0 12 -25 15 -55z m125 -355 c0 -5
-7 -10 -16 -10 -8 0 -12 -5 -9 -10 4 -6 15 -8 26 -5 14 5 17 3 13 -9 -3 -9 -1
-16 6 -16 6 0 8 -5 5 -10 -3 -6 1 -13 9 -16 22 -8 20 -24 -2 -24 -10 0 -24 -6
-31 -12 -11 -11 -13 -10 -8 4 8 21 -9 34 -17 13 -3 -8 -12 -15 -20 -15 -10 0
-13 6 -10 15 4 10 0 15 -12 15 -18 1 -18 1 -1 14 14 11 15 15 5 19 -7 3 -3 6
10 6 13 1 22 -5 22 -14 0 -8 -4 -15 -10 -15 -5 0 -7 -7 -3 -15 5 -13 8 -13 20
4 10 16 11 26 3 41 -6 11 -15 18 -21 15 -13 -9 -11 3 4 20 14 17 37 20 37 5z
m-76 -101 c-6 -11 -24 -2 -24 11 0 5 7 7 15 4 8 -4 12 -10 9 -15z m137 -18
c-12 -22 -62 -57 -59 -40 2 6 -3 14 -11 17 -10 3 -13 -1 -8 -17 3 -11 1 -19
-3 -16 -5 3 -11 -4 -15 -15 -4 -12 -14 -19 -23 -18 -12 2 -16 -3 -14 -17 2
-11 2 -18 0 -15 -2 3 -10 14 -18 24 -10 13 -10 17 -2 12 7 -4 12 -2 12 4 0 7
7 9 16 6 8 -3 12 -2 9 4 -3 6 -2 10 4 10 5 0 11 10 13 23 2 16 10 22 28 23 14
0 24 6 23 12 -4 16 9 15 26 0 9 -9 12 -9 7 -1 -5 9 2 17 22 22 1 1 -2 -7 -7
-18z m-151 -37 c-7 -8 -11 -17 -8 -19 3 -3 11 6 18 19 7 14 20 28 29 31 12 5
13 3 4 -6 -6 -6 -9 -18 -6 -25 7 -19 -47 -40 -58 -22 -5 7 -4 15 1 16 6 2 7 9
4 14 -4 7 -2 8 4 4 7 -4 12 0 13 11 0 11 3 13 6 5 3 -7 -1 -19 -7 -28z m2235
-341 c5 -15 93 -304 136 -451 8 -25 6 -39 -8 -62 -18 -31 -37 -41 -27 -15 5
13 2 14 -19 6 -13 -5 -36 -8 -51 -7 -15 2 -29 -1 -32 -6 -3 -5 -12 -4 -20 3
-20 17 -8 28 26 24 19 -3 30 1 31 8 0 7 3 4 7 -5 6 -15 9 -13 19 8 11 23 10
24 -4 12 -15 -11 -16 -11 -10 5 3 9 2 17 -3 17 -6 0 -10 -6 -10 -12 0 -8 -16
-14 -37 -16 -20 -1 -41 -8 -45 -15 -6 -8 -8 -5 -6 8 2 13 -2 19 -11 17 -11 -2
-12 0 -3 11 14 16 6 46 -12 48 -55 7 -56 6 -51 -12 3 -9 1 -20 -5 -24 -6 -3
-10 3 -10 14 0 12 -7 21 -15 21 -8 0 -15 4 -15 10 0 5 -13 -4 -29 -21 -28 -29
-30 -29 -36 -10 -3 12 -3 25 0 31 3 6 -1 13 -9 16 -16 6 -12 24 5 24 15 0 28
-44 15 -52 -8 -6 -8 -8 1 -8 14 0 26 18 30 45 2 15 1 17 -6 6 -7 -11 -11 -10
-20 7 -7 13 -18 19 -31 17 -13 -3 -20 2 -20 12 0 13 2 14 18 2 15 -12 16 -12
5 2 -7 9 -11 19 -8 23 3 3 -1 2 -7 -4 -21 -17 -48 -12 -48 10 0 11 -4 20 -8
20 -12 0 -10 -44 2 -52 6 -4 1 -8 -12 -8 -19 0 -21 4 -16 26 5 18 3 25 -4 20
-6 -3 -13 0 -16 6 -4 7 -4 3 -2 -9 5 -30 -6 -29 -20 1 -10 21 -9 23 4 18 12
-4 14 -1 9 14 -7 18 -7 18 8 0 12 -16 18 -17 27 -8 9 9 9 12 -1 12 -18 0 -3
19 32 40 27 17 29 20 13 26 -12 5 -22 1 -28 -10 -8 -15 -12 -14 -30 9 -11 14
-24 22 -29 19 -6 -3 -2 -12 8 -21 10 -8 12 -12 5 -8 -21 11 -52 -4 -45 -23 3
-9 3 -14 -1 -10 -4 3 -9 14 -10 25 -2 11 -11 18 -24 17 -14 0 -18 4 -15 15 4
10 -2 8 -16 -6 -26 -27 -28 -28 -28 -8 0 8 3 13 5 10 3 -3 13 2 23 11 16 15
20 14 41 -5 21 -20 23 -21 35 -5 7 10 13 23 13 30 0 15 50 48 51 34 1 -5 2
-14 3 -19 0 -5 5 -13 10 -18 5 -4 6 3 2 19 -5 22 -2 30 15 39 19 10 21 9 15
-7 -4 -14 -1 -12 13 5 14 18 20 21 24 10 4 -11 6 -10 6 2 1 9 13 21 27 27 20
10 24 10 18 0 -4 -7 1 -5 12 4 21 18 161 86 180 87 7 1 15 -7 19 -16z m-1794
-238 l276 -151 189 -19 c186 -18 192 -18 378 2 161 16 198 18 245 7 31 -7 82
-18 113 -24 l58 -11 -40 -73 -40 -73 49 -7 c28 -4 162 -6 298 -6 237 1 453 -8
453 -18 0 -4 -81 -101 -385 -462 -81 -96 -193 -230 -247 -297 -55 -68 -104
-123 -110 -123 -5 0 -78 37 -162 83 l-153 82 -118 175 c-65 96 -131 193 -147
214 l-28 39 0 -29 c0 -16 5 -132 11 -257 7 -125 9 -230 7 -233 -3 -2 -64 19
-136 47 l-130 52 -42 176 c-23 97 -47 195 -52 219 -6 23 -16 42 -23 42 -7 0
-111 -21 -231 -46 -121 -25 -229 -46 -242 -47 -24 -2 -12 -23 -270 447 -45 82
-82 156 -82 164 0 15 98 350 107 365 5 8 17 2 454 -238z m1379 65 c-24 -15
-37 -11 -16 5 11 8 22 12 25 9 3 -3 -1 -9 -9 -14z m-125 -68 c-3 -3 -11 0 -18
7 -9 10 -8 11 6 5 10 -3 15 -9 12 -12z m106 -119 c13 -16 12 -17 -3 -4 -17 13
-22 21 -14 21 2 0 10 -8 17 -17z m64 -13 c-3 -5 -12 -10 -18 -10 -7 0 -6 4 3
10 19 12 23 12 15 0z m42 -9 c0 -10 -6 -17 -12 -14 -16 5 -15 33 1 33 7 0 12
-9 11 -19z m47 -12 c-3 -5 1 -9 8 -9 10 0 10 -2 -1 -9 -8 -5 -21 -6 -30 -3
-11 4 -12 7 -2 10 11 4 11 6 0 13 -11 7 -11 9 -1 9 8 0 10 5 6 13 -5 8 -3 8 9
-2 9 -7 14 -17 11 -22z m117 -46 c13 -16 12 -17 -3 -4 -17 13 -22 21 -14 21 2
0 10 -8 17 -17z m89 -9 c0 -8 -5 -14 -11 -14 -5 0 -8 -4 -5 -9 4 -5 -3 -7 -14
-4 -12 3 -17 10 -13 17 4 6 8 14 9 19 1 4 2 9 3 12 3 11 31 -8 31 -21z m-105
-3 c3 -5 2 -12 -3 -15 -5 -3 -9 1 -9 9 0 17 3 19 12 6z m59 -42 c-6 -11 -24
-2 -24 11 0 5 7 7 15 4 8 -4 12 -10 9 -15z m-70 3 c3 -5 -1 -9 -9 -9 -8 0 -15
4 -15 9 0 4 4 8 9 8 6 0 12 -4 15 -8z m151 -41 c3 -5 2 -12 -3 -15 -5 -3 -9 1
-9 9 0 17 3 19 12 6z m181 -7 c-5 -14 -4 -15 8 -5 12 10 15 9 13 -6 -2 -29
-32 -26 -35 3 -1 13 3 24 9 24 6 0 8 -7 5 -16z m-50 -9 c17 -16 14 -18 -10 -9
-9 3 -16 10 -16 15 0 13 9 11 26 -6z"/>
<path d="M2505 3820 c4 -6 11 -8 16 -5 14 9 11 15 -7 15 -8 0 -12 -5 -9 -10z"/>
<path d="M2548 3808 c-9 -5 -6 -7 9 -5 12 2 25 6 28 8 8 9 -23 6 -37 -3z"/>
<path d="M2710 3706 c0 -2 7 -7 16 -10 8 -3 12 -2 9 4 -6 10 -25 14 -25 6z"/>
<path d="M2687 3658 c-7 -20 -7 -28 0 -30 3 -2 8 7 9 20 4 24 -1 30 -9 10z"/>
<path d="M2752 3627 c-3 -34 6 -33 13 1 2 12 0 24 -4 26 -4 3 -8 -9 -9 -27z"/>
<path d="M2855 3560 c-3 -5 -1 -10 4 -10 6 0 11 5 11 10 0 6 -2 10 -4 10 -3 0
-8 -4 -11 -10z"/>
<path d="M2915 3560 c3 -5 11 -10 16 -10 6 0 7 5 4 10 -3 6 -11 10 -16 10 -6
0 -7 -4 -4 -10z"/>
<path d="M2910 3523 c0 -13 29 -38 35 -31 3 3 -4 13 -15 23 -11 10 -20 13 -20
8z"/>
<path d="M2940 3526 c0 -2 8 -10 18 -17 15 -13 16 -12 3 4 -13 16 -21 21 -21
13z"/>
<path d="M2993 3513 c-7 -2 -13 -9 -13 -14 0 -6 4 -8 9 -5 5 4 11 0 14 -6 3
-7 4 -3 4 10 -1 12 -1 22 -2 21 0 0 -6 -3 -12 -6z"/>
<path d="M3021 3466 c-23 -24 -23 -25 -2 -19 11 3 18 9 16 14 -3 4 3 12 12 18
10 6 13 11 7 11 -6 0 -21 -11 -33 -24z"/>
<path d="M1305 2560 c-3 -5 1 -13 10 -16 22 -9 29 1 11 15 -10 8 -16 9 -21 1z"/>
<path d="M3208 2003 c7 -3 16 -2 19 1 4 3 -2 6 -13 5 -11 0 -14 -3 -6 -6z"/>
<path d="M3082 1981 c-10 -6 -8 -13 7 -32 11 -13 20 -19 21 -13 0 8 11 9 35 4
19 -4 33 -4 30 0 -3 5 -2 10 2 13 5 2 3 2 -4 1 -6 -2 -14 2 -16 9 -3 9 -8 9
-19 -1 -11 -9 -18 -10 -23 -2 -3 6 -11 7 -17 4 -7 -5 -9 -1 -5 9 7 19 7 20
-11 8z"/>
<path d="M3180 1980 c0 -5 5 -10 11 -10 5 0 7 5 4 10 -3 6 -8 10 -11 10 -2 0
-4 -4 -4 -10z"/>
<path d="M3120 1876 c0 -2 8 -10 18 -17 15 -13 16 -12 3 4 -13 16 -21 21 -21
13z"/>
<path d="M3156 1827 c3 -10 9 -15 12 -12 3 3 0 11 -7 18 -10 9 -11 8 -5 -6z"/>
<path d="M3211 1819 c-1 -18 23 -42 43 -45 7 -1 13 4 13 12 0 7 -4 11 -9 8 -4
-3 -8 1 -8 8 0 10 -3 9 -10 -2 -7 -12 -11 -10 -19 10 -6 15 -10 19 -10 9z"/>
<path d="M3325 1740 c3 -5 11 -10 16 -10 6 0 7 5 4 10 -3 6 -11 10 -16 10 -6
0 -7 -4 -4 -10z"/>
<path d="M3429 1703 c-13 -16 -12 -17 4 -4 9 7 17 15 17 17 0 8 -8 3 -21 -13z"/>
<path d="M3476 1698 c3 -5 10 -6 15 -3 13 9 11 12 -6 12 -8 0 -12 -4 -9 -9z"/>
<path d="M3439 1685 c-1 -5 -1 -14 0 -19 1 -5 -4 -4 -13 3 -10 8 -16 9 -21 1
-10 -16 18 -22 48 -11 15 6 27 13 27 16 0 4 -5 3 -11 -1 -6 -3 -15 0 -20 7 -5
8 -9 10 -10 4z"/>
<path d="M3541 1644 c0 -11 3 -14 6 -6 3 7 2 16 -1 19 -3 4 -6 -2 -5 -13z"/>
<path d="M2964 1183 c-27 -36 -52 -72 -56 -78 -5 -8 34 -25 125 -55 73 -24
136 -45 141 -48 5 -3 6 1 1 9 -15 25 -147 224 -154 232 -4 4 -29 -23 -57 -60z"/>
</g>
</svg>
